<?xml version="1.0" encoding="UTF-8"?>
<svg width="333px" height="24px" viewBox="0 0 333 24" version="1.1" xmlns="http://www.w3.org/2000/svg" xmlns:xlink="http://www.w3.org/1999/xlink">
    <title>Fill 1</title>
    <g id="Page-1" stroke="none" stroke-width="1" fill="none" fill-rule="evenodd">
        <g id="Desktop-HD" transform="translate(-495.000000, -244.000000)" fill="#00FF97">
            <path d="M502.918846,267.764747 C502.095215,267.849692 501.243002,268.079794 500.456872,267.971646 C499.868532,267.890727 499.337585,267.401378 498.836365,267.039926 C498.600617,266.869842 498.55923,266.508583 498.321195,266.343293 C494.532313,263.711888 493.951976,260.109837 496.75145,256.538274 C497.336589,255.791977 497.680492,254.768792 498.489031,254.325654 C499.511595,253.765356 500.875319,253.562675 502.128142,253.389332 C507.143781,252.69615 512.16628,252.032882 517.199526,251.437685 C521.86829,250.885825 526.554431,250.436168 531.23234,249.938956 C534.723966,249.567725 538.212848,249.179237 541.706532,248.822387 C545.50982,248.433707 549.308535,247.986926 553.124628,247.723268 C557.188588,247.442352 561.274041,247.38847 565.343489,247.154917 C568.300738,246.985217 571.241753,246.601714 574.199916,246.461927 C578.366544,246.264806 582.547349,246.273435 586.712604,246.063084 C589.555295,245.919462 592.376035,245.483803 595.217811,245.304132 C598.084283,245.122927 600.965389,245.101642 603.839406,245.001548 C607.732557,244.86598 611.624794,244.711428 615.518402,244.58468 C619.49227,244.455056 623.466367,244.306449 627.442064,244.242596 C633.965482,244.137708 640.4905,244.073279 647.015062,244.032244 C651.952271,244.00118 656.891309,243.969733 661.826689,244.055446 C666.543242,244.137324 671.256136,244.514691 675.969945,244.50798 C686.394975,244.493023 696.819547,244.267715 707.244805,244.246814 C709.647785,244.24202 712.045048,244.837409 714.458088,244.939229 C718.292474,245.101259 722.138979,245.053129 725.978624,245.144403 C729.866287,245.236827 733.751664,245.390612 737.638184,245.517167 C744.082029,245.727135 750.528617,245.890124 756.968574,246.165479 C760.350444,246.310252 763.715392,246.720791 767.097033,246.883588 C770.257789,247.035647 773.429978,247.056165 776.597365,247.066711 C780.220698,247.078983 783.846089,246.941306 787.466908,247.009377 C790.451367,247.06556 793.428052,247.366227 796.412284,247.48703 C799.883559,247.627776 803.359178,247.710037 806.83434,247.78156 C809.852184,247.843688 812.87826,247.965067 815.886729,247.833142 C817.010131,247.783861 818.303656,247.287992 819.150153,246.651377 C820.864411,245.361849 822.26129,246.015721 823.797193,246.760292 C826.759473,248.196319 827.064504,250.83827 827.668851,253.186075 C828.384097,255.964937 827.953303,258.721748 826.253679,261.356988 C824.544223,264.007952 820.25229,265.554428 816.909293,264.343134 C815.532307,263.844196 814.279483,263.047277 812.860653,262.700399 C811.09106,262.267808 809.217655,262.069537 807.372147,261.933777 C804.705981,261.737423 802.024495,261.688335 799.349639,261.575777 C795.879736,261.429854 792.411662,261.221228 788.939701,261.153156 C784.979782,261.075305 781.011859,261.222954 777.056284,261.087386 C772.998726,260.948174 768.955117,260.543578 764.899618,260.337062 C762.726213,260.22623 760.53863,260.32805 758.360194,260.262087 C754.430915,260.14301 750.505065,259.936493 746.5751,259.834098 C744.655734,259.784051 742.728138,259.952409 740.809001,259.90217 C738.414711,259.839275 736.02728,259.594792 733.633447,259.532857 C729.786256,259.433338 725.931063,259.499108 722.088216,259.34379 C719.080433,259.222411 716.087513,258.699313 713.085218,258.680521 C710.912727,258.667099 708.735892,259.190197 706.559514,259.466702 C706.270946,259.503519 705.820487,259.60764 705.7041,259.494315 C704.05158,257.881877 701.818494,258.724049 699.915135,258.660004 C694.951859,258.492605 689.972577,258.682822 685.000154,258.660196 C683.474769,258.653101 681.952127,258.404208 680.425141,258.297785 C680.038021,258.270749 679.638553,258.398838 679.244574,258.398647 C678.243275,258.398263 677.241291,258.340354 676.240449,258.35301 C675.226803,258.365857 674.214758,258.443517 673.20134,258.478991 C670.520311,258.572565 667.838596,258.739006 665.158025,258.725008 C662.441782,258.710818 659.723482,258.551473 657.012727,258.381197 C655.923166,258.312934 654.8567,257.953208 653.769197,257.90853 C653.198235,257.885136 652.604864,258.256942 652.020868,258.448886 C651.796554,258.522518 651.571096,258.652717 651.344723,258.65521 C648.692505,258.683589 646.03983,258.71542 643.387612,258.700655 C640.508565,258.68474 637.629974,258.602862 634.750698,258.584646 C633.120129,258.574483 631.489103,258.641404 629.858077,258.660771 C627.686729,258.686657 625.514696,258.681288 623.343806,258.723857 C621.011025,258.769494 618.679387,258.865178 616.346606,258.920211 C614.054526,258.974285 611.761075,258.987515 609.469452,259.052711 C608.420135,259.082816 607.374248,259.252516 606.326303,259.256926 C604.227669,259.265555 602.128349,259.172172 600.030401,259.192114 C599.455323,259.197675 598.880931,259.58137 598.310884,259.572549 C596.969112,259.552032 595.630541,259.393262 594.289226,259.305439 C593.955384,259.28358 593.612624,259.296235 593.279925,259.331709 C590.212462,259.659221 587.153231,260.057872 584.076393,260.301396 C582.633553,260.415489 581.145439,260.114055 579.698484,260.212807 C576.027589,260.463235 572.371329,260.861502 568.702721,261.142802 C567.096162,261.265906 565.458504,261.146445 563.862692,261.317104 C561.147364,261.607799 558.465649,262.123994 555.747806,262.388036 C553.512205,262.60529 551.228129,262.482953 548.997101,262.719958 C547.211502,262.909791 545.332609,262.494458 543.615379,263.530299 C542.873608,263.977655 541.542812,263.744869 540.478861,263.812749 C538.090058,263.965383 535.678161,263.98801 533.316569,264.28906 C528.813812,264.862972 524.351986,265.663918 519.848543,266.232461 C517.48192,266.531209 515.060648,266.516445 512.667959,266.682501 C510.496154,266.83341 508.321148,266.987578 506.164205,267.239348 C505.083791,267.365328 504.04019,267.712398 502.980126,267.959374 C502.959547,267.894562 502.939196,267.829559 502.918846,267.764747" id="Fill-1"></path>
        </g>
    </g>
</svg>